<svg xmlns="http://www.w3.org/2000/svg" viewBox="0 0 24 30" x="0px" y="0px"><title>bluetooth</title><path d="M5.5,20.5A.5.5,0,0,1,5,20l-.4-4A7.34,7.34,0,0,1,3,11.5c0-4.41,4-8,9-8s9,3.59,9,8-4,8-9,8a10,10,0,0,1-2.67-.36L5.67,20.47A.49.49,0,0,1,5.5,20.5ZM12,4.5c-4.41,0-8,3.14-8,7a6.37,6.37,0,0,0,1.47,4,.5.5,0,0,1,.11.26l.35,3.51,3.21-1.17a.5.5,0,0,1,.31,0A9,9,0,0,0,12,18.5c4.41,0,8-3.14,8-7S16.41,4.5,12,4.5Z"/><path d="M12.5,13.5a.5.5,0,0,1-.47-.33l-.81-2.32L7.72,12.59a.5.5,0,1,1-.45-.89l4-2A.5.5,0,0,1,12,10l.82,2.34,3.5-1.62a.5.5,0,0,1,.42.91l-4,1.86A.5.5,0,0,1,12.5,13.5Z"/><text x="0" y="39" fill="#000000" font-size="5px" font-weight="bold" font-family="'Helvetica Neue', Helvetica, Arial-Unicode, Arial, Sans-serif">Created by Henning Gross</text><text x="0" y="44" fill="#000000" font-size="5px" font-weight="bold" font-family="'Helvetica Neue', Helvetica, Arial-Unicode, Arial, Sans-serif">from the Noun Project</text></svg>