<svg xmlns="http://www.w3.org/2000/svg" xmlns:xlink="http://www.w3.org/1999/xlink" version="1.1" x="0px" y="0px" viewBox="0 0 100 125" style="enable-background:new 0 0 100 100;" xml:space="preserve"><path d="M77,90.4h-54c-5.8,0-10.6-4.7-10.6-10.6v-54c0-5.8,4.7-10.6,10.6-10.6h54c5.8,0,10.6,4.7,10.6,10.6v54  C87.6,85.6,82.9,90.4,77,90.4z M23.1,18.2c-4.2,0-7.6,3.4-7.6,7.6v54c0,4.2,3.4,7.6,7.6,7.6h54c4.2,0,7.6-3.4,7.6-7.6v-54  c0-4.2-3.4-7.6-7.6-7.6H23.1z"/><rect x="14" y="31" width="72" height="3"/><circle cx="25.3" cy="24.8" r="3.7"/><path d="M58.8,89.3L39.5,70L20.3,89.1L18.2,87l20.2-20.2c0.6-0.6,1.6-0.6,2.1,0l20.4,20.4L58.8,89.3z"/><path d="M84.3,81.5L62.7,59.9L47.1,75.4l-2.1-2.1l16.7-16.7c0.6-0.6,1.5-0.6,2.1,0l22.7,22.7L84.3,81.5z"/><path d="M60,25H37c-0.8,0-1.5-0.7-1.5-1.5S36.2,22,37,22h23c0.8,0,1.5,0.7,1.5,1.5S60.8,25,60,25z"/><path d="M60,29H37c-0.8,0-1.5-0.7-1.5-1.5S36.2,26,37,26h23c0.8,0,1.5,0.7,1.5,1.5S60.8,29,60,29z"/><text x="0" y="115" fill="#000000" font-size="5px" font-weight="bold" font-family="'Helvetica Neue', Helvetica, Arial-Unicode, Arial, Sans-serif">Created by Paola Moreira</text><text x="0" y="120" fill="#000000" font-size="5px" font-weight="bold" font-family="'Helvetica Neue', Helvetica, Arial-Unicode, Arial, Sans-serif">from the Noun Project</text></svg>